<?xml version="1.0" encoding="UTF-8"?>
<svg width="128pt" height="128pt" version="1.1" viewBox="0 0 128 128" xmlns="http://www.w3.org/2000/svg">
 <defs>
  <clipPath id="c">
   <path d="m77 36h42.633v79h-42.633z"/>
  </clipPath>
  <clipPath id="b">
   <path d="m8.6992 8.4844h108.3v109.06h-108.3z"/>
  </clipPath>
  <clipPath id="a">
   <path d="m21 8.4844h37v20.516h-37z"/>
  </clipPath>
 </defs>
 <path d="m105.98 85.547c0.046875-0.11719 0.42578-1.0195 0.80469-1.9922 0.49609-0.82813 1.043-1.7305 1.7773-2.8203 0.070312 0.023437 0.14062 0.046875 0.23828 0.09375-0.99609 1.9922-2.3008 4.4805-2.8203 4.7188"/>
 <g clip-path="url(#c)">
  <path d="m118.9 55.371c0.87891 5.2617 0.99609 10.547 0.28516 15.859-1.3516 10.266-5.5938 19.293-11.875 27.426-2.3711 3.0586-5.1445 5.7344-8.2266 8.082-4.9531 3.7695-10.406 6.3984-16.52 7.5625-1.8008 0.33203-3.6758 0.47266-5.5234 0.57031 1.4688-1.0195 3.2227-1.1133 4.8359-1.5898 3.4375-0.97266 6.8516-2.1328 9.9336-3.9336 4.4336-2.582 8.6289-5.5234 12.137-9.3633 6.7539-7.4414 11.355-15.953 13.344-25.836 1.4922-7.3711 1.3281-14.695-0.42578-21.996-0.78125-3.3203-1.4453-6.6602-2.7031-9.8359-0.80469-1.9922-1.6836-3.9102-2.7266-5.7617l0.73438-0.33203c3.3867 5.9688 5.5938 12.348 6.7305 19.148"/>
 </g>
 <path d="m106.27 43.969c2.9375 5.7617 4.3633 11.898 4.3633 18.324-0.78516-8.0586-1.5664-11.258-4.3633-18.324"/>
 <path d="m108.78 80.805h0.023437c-0.09375 0.37891-1.0664 2.4648-1.2812 2.7969-1.3047 2.2031-3.2227 5-4.8828 7.1094-0.80469-0.19141 1.2578-2.3945 1.8008-3.3203 0.92578-1.3984 1.5391-2.5117 2.3242-3.8398-0.37891 0.97266-0.73438 1.8711-0.80469 1.9922 0.54297-0.23438 1.8477-2.7227 2.8203-4.7383"/>
 <path d="m108.07 55.656c2.25 8.1055 1.8711 16.047-1.5156 23.773-0.61719 1.4219-1.4219 2.75-2.1328 4.125-0.070313 0.14062-0.21484 0.28516-0.44922 0.35547 0.070312-0.23828 0.14062-0.47266 0.23828-0.71094 1.8008-4.6211 2.8906-9.4102 3.293-14.363 0.51953-6.2109-0.09375-12.301-1.8945-18.25l0.92578-0.26172c0.51562 1.7539 1.0352 3.5312 1.5352 5.332"/>
 <g clip-path="url(#b)">
  <path d="m115.89 54.922c-0.75781-4.9297-1.8242-9.7891-3.7695-14.41-1.1133-2.6328-2.5586-5.0742-4.1016-7.4648-0.33203-0.51953-0.59375-1.0898-0.90234-1.6602 0.09375-0.070313 0.16406-0.11719 0.26172-0.19141 0.42578 0.42578 0.87891 0.80469 1.2578 1.2578 1.0664 1.2812 1.9922 2.6562 2.7969 4.1016l0.73437-0.33203c-0.78125-1.375-1.6133-2.7031-2.5117-4.0312-3.5078-5.1445-7.7031-9.6016-12.824-13.18-4.5273-3.1523-9.457-5.5234-14.695-7.3008-7.3711-2.5117-14.887-3.7461-22.707-3.1055-6.3984 0.51953-12.324 2.25-17.871 4.9766-2.8906 1.4453-5.6875 3.1523-8.3906 5.0977-3.6758 2.6797-7.1602 5.5938-10.168 9.0312-2.6797 3.0352-5.1445 6.2578-6.9219 9.9062-2.3711 4.9062-3.6758 10.168-4.5742 15.504-0.40234 2.418-0.78125 4.8594-1.1836 7.2773-0.046875 0.30859-0.21484 0.59375-0.33203 0.90234-0.070313-0.023437-0.14062-0.046875-0.21484-0.070312 0.11719-1.5625 0.16406-3.1289 0.35547-4.668 0.47266-4.2891 1.4688-8.4375 2.8203-12.539 1.6836-5.1211 3.7461-10.027 7.0625-14.34 0.37891-0.47266 0.6875-0.99609 1.043-1.4922-0.42578 0.47266-0.85156 0.94922-1.2578 1.4453-3.2461 4.0312-5.6406 8.5352-7.4922 13.344-3.0586 8.0586-4.1484 16.309-3.3438 24.77 0.61719 6.4961 2.2031 12.754 4.8828 18.703 1.1836 2.6328 2.6328 3.8633 3.8633 6.4727 1.1836 2.5117 2.5352 4.668 4.1953 6.8984 1.4453 1.9453 2.9883 3.1289 4.4805 5.0508 1.0898 1.375 1.707 1.6367 2.8203 2.9648 0.21484 0.26172 1.1133 1.3516 1.4453 1.4453 0.59375 0.14062 1.2578 0.94922 1.8008 1.1836 1.1367 0.47266 2.2266 1.0898 3.3438 1.6602 2.0391 1.043 3.5781 2.1797 5.6172 3.1992 0.23828 0.11719 1.2578 0.35547 1.6133 0.44922-0.19141-0.37891-0.51953-0.14062-0.73438-0.59375 0.97266 0.28516 1.707 0.47266 2.7266 0.80469 1.3281 0.42578 3.8164 1.1602 5.168 1.5391 0.42578 0.11719 0.19141-0.21484 0.64062-0.21484 0.023438-0.046875 0.73438 0.11719 0.75781 0.070312-0.26172-0.21484 0.44922-0.21484 0.14062-0.47266 0.16406-0.09375 0.26172-0.14062 0.37891-0.21484 1.3281-0.94922 2.7031-1.1602 4.0078-2.1562 0.44922-0.33203 0.85156-0.82812 0.6875-1.5156-0.23828-0.94922-0.40234-1.9453-0.75781-2.8672-0.30859-0.75781-0.71094-1.5898-1.3281-2.0859-1.375-1.0898-1.5156-2.4648-2.9648-3.4609-1.0195-0.6875-4.1953-1.8477-5.1445-2.6328-1.2812-1.1133-3.9102-1.1367-5.1211-2.3242-1.4688-1.4453-3.7461-2.7969-5.0508-4.3867-9.5508-8.3438-11.805-16.902-13.203-23.395-0.21484-0.90234-0.14062-3.957-0.35547-4.9766-0.16406 0.26172-0.26172 0.40234-0.42578 0.64062-0.070312-0.35547-0.11719-0.57031-0.14062-0.80469-0.57031-6.5195 0.11719-12.895 2.3711-19.059 0.78125-2.1562 1.707-4.1953 2.7969-6.1172 3.9805-7.1836 9.8828-12.707 17.258-16.949 2.6562-1.5391 5.4297-2.6797 8.2734-3.4844 4.1953-1.1836 8.5586-1.5898 13.062-1.3984 5.9727 0.26172 11.613 1.9219 17.02 4.3633 3.957 1.7773 7.7031 3.957 10.809 7.0156 1.707 1.6836 3.1992 3.6016 4.668 5.5 3.0352 3.9336 5.2617 8.3203 6.8047 13.035 0.09375 0.30859 0.19141 0.61719 0.28516 0.92578l0.92578-0.26172c-0.23828-0.80469-0.44922-1.6133-0.6875-2.3945-0.09375-0.33203-0.070313-0.71094-0.11719-1.1602 0.40234 0.14062 0.61719 0.23828 0.90234 0.33203 0.35547-1.1367-0.28516-2.0859-0.35547-3.1055 2.9375 5.7617 4.3633 11.898 4.3633 18.324 0 3.957-0.30859 7.918-0.71094 11.852-0.23828 2.2031-1.6602 4.5977-2.1562 6.7539-0.023438 0.16406-0.51953 1.4453-0.99609 2.6055 0.49609-0.82812 1.043-1.7305 1.7773-2.8203 0.070312 0.023438 0.14062 0.046875 0.23828 0.09375 0.59375-1.2344 1.043-2.2773 1.1133-2.5352 0.75781-2.6562 1.3516-3.9102 1.5391-6.6836 0.14062-2.0625 0.30859-4.1016 0.33203-6.1406 0.023438-2.8672-0.14062-4.5508-0.33203-7.418-0.14062-1.8945-0.80469-4.9766-1.207-6.8281-1.2344-5.3086-3.7461-10.051-6.5898-14.648-0.47266-0.75781-0.90234-1.5391-1.3984-2.418 3.0117 0.49609 10.238 13.797 10.477 18.965-0.61719-1.4922-1.207-2.9375-1.8008-4.4102-0.09375 0.023438-0.16406 0.070313-0.26172 0.09375 2.3945 7.5156 2.6797 15.242 2.4648 23.039 0.14062-1.0898 0.30859-2.1562 0.44922-3.2461 0.09375 0.90234 0.14062 1.7773 0 2.6562-0.28516 1.707-0.49609 3.4609-1.1367 5.0234-0.40234 0.97266-0.71094 1.9688-1.1133 2.9375-0.99609 2.418-1.9219 4.8828-3.0586 7.207-1.0664 2.1562-2.2773 4.2656-3.625 6.2812-1.0664 1.6133-2.5352 2.9648-3.625 4.5508-1.1836 1.707-2.6562 3.0352-4.2656 4.2422-1.707 1.2812-3.4141 2.582-4.9297 4.0781-1.0664 1.0664-2.25 1.8945-3.625 2.7734 0.21484 0.19141 0.40234 0.49609 0.54688 0.47266 0.71094-0.14063 1.4688 0.11719 2.1328-0.35547 1.0664-0.75781 2.3477-1.2578 3.2695-2.1562 1.0195-0.97266 2.0391-1.9219 3.2461-2.582 2.5586-1.375 4.5508-3.3906 6.2578-5.6641 2.0625-2.75 3.9102-5.6641 5.9023-8.4844 3.8164-5.3789 5.8086-11.402 6.6602-17.871 0.69922-5.5508 0.48828-11.145-0.36719-16.738zm-13.012-16.449c0.49609 0.82812 1.4453 1.4219 1.4453 2.5586-0.070312 0.046875-0.14062 0.070312-0.21484 0.11719-0.47266-0.85156-0.94922-1.707-1.4219-2.5586 0.070312-0.023438 0.14453-0.070313 0.19141-0.11719zm-1.5664-2.207c-0.44922-0.47266-0.92578-0.97266-1.375-1.4453-5.1172-5.5469-11.094-9.9297-18.133-12.777-1.7773-0.71094-3.6992-1.043-5.5469-1.6133-0.92578-0.28516-1.8008-0.71094-2.7031-1.0664 0.046875-0.09375 0.09375-0.21484 0.11719-0.30859 1.8945 0.51953 3.8164 1.0195 5.6875 1.5898 3.5781 1.043 7.0859 2.3477 10.336 4.1953 3.5078 2.0156 6.5195 4.6445 9.125 7.75 0.85156 0.99609 1.5898 2.0859 2.3945 3.1523 0.097656 0.097656 0.16797 0.26562 0.097656 0.52344z"/>
 </g>
 <path d="m87.895 108.42c0.16406 0.42578 0.33203 0.75781-0.23828 0.92578-0.070312 0.023438-0.16406 0.09375-0.14062 0.14062 0.070313 0.94922-0.73438 0.97266-1.3047 1.207-1.0898 0.44922-2.2031 0.80469-3.3203 1.1836-0.046875-0.09375-0.09375-0.21484-0.16406-0.30859 1.707-1.0625 3.4141-2.082 5.168-3.1484"/>
 <path d="m60.656 20.742c1.3516-0.92578 10.168-0.37891 11.234 0.54687-3.6953-0.16797-7.3711-0.35937-11.234-0.54687"/>
 <path d="m53.168 21.785c0.49609-0.14062 1.043-0.19141 1.5391-0.28516-5.332 1.5898-10.051 4.1953-14.363 7.6797-4.1484 3.3672-7.6328 7.3477-10.926 11.52-0.28516 0.35547-0.59375 0.6875-0.90234 1.043-0.046875 0.046874-0.11719 0.070312-0.40234 0.19141 0.30859-0.49609 0.49609-0.82812 0.71094-1.1367 3.293-4.7656 7.207-8.9375 11.805-12.422 3.793-2.918 7.8672-5.3125 12.539-6.5898"/>
 <g clip-path="url(#a)">
  <path d="m57.078 8.0352c-1.043 0.51953-8.9375 1.9922-9.9805 2.4883-1.8945 0.92578-3.793 1.8477-5.6875 2.7969-1.7305 0.85156-3.4375 1.707-5.168 2.582-4.0312 2.0391-7.5859 4.7656-10.855 7.8711-1.2578 1.207-2.3945 2.5352-3.6016 3.793-0.16406 0.16406-0.35547 0.30859-0.57031 0.47266 0.6875-0.82812 1.3047-1.6836 2.0391-2.4648 2.8906-3.125 6.043-5.8984 9.457-8.3906 4.5508-3.3438 9.5039-5.9023 14.91-7.6094 0.82812-0.26172 3.8164-0.97266 4.7188-1.0664"/>
 </g>
 <path d="m21.168 28.09c0.023437-0.023438 0.046875-0.046875 0.09375-0.070313-0.023438 0.023438-0.070313 0.070313-0.09375 0.070313z"/>
 <path d="m21.168 28.09c-0.023438 0.070312-0.070313 0.11719-0.11719 0.16406 0.046875-0.046875 0.070313-0.11719 0.11719-0.16406"/>
 <path d="m103.56 94.27c-0.070312-0.046875 3.0352-3.8164 2.9648-3.8633-2.6328 2.1797-7.3711 7.418-9.457 9.1719-0.80469 0.73438-2.2031 1.707-2.6797 2.6797 2.2031-1.5625 4.8359-3.6992 6.707-5.4297 0.25781-0.28125 2.2734-2.2266 2.4648-2.5586"/>
 <path d="m106.98 76.965c-3.3203 8.3203-8.8906 16.996-14.742 22.352 7.7734-5.3086 12.727-13.461 14.742-22.352"/>
 <path d="m107.9 81.777c-2.9648 6.6602-11.613 16-17.258 20.812 7.5625-5.0508 15.598-13.914 17.258-20.812"/>
 <path d="m42.027 99.746c1.5625-0.90234 9.6953 3.1289 10.668 5.7344-3.1758-1.6133-3.2227-2.6328-5.9492-3.8398"/>
</svg>
